# xmcd
#
# Track frame offsets:
#	150
#	17052
#	29966
#	45798
#	58334
#	70845
#	85733
#	96788
#	107750
#	125462
#	141174
#	158071
#	174223
#	193237
#	205707
#
# Disc length: 2910 seconds
#
# Revision: 1
# Processed by: cddbd v1.5.2PL0 Copyright (c) Steve Scherf et al.
# Submitted via: audiograbber 1.83.01
#
DISCID=cb0b5c0f
DTITLE=Chartbuster Karaoke Vol 79 - Hot Country hits Collection
DYEAR=2011
DGENRE=Country
TTITLE0=Party time - TG Shepherd
TTITLE1=take it on home - Charlie Rich
TTITLE2=nobody - Sylvia
TTITLE3=I can tell by the way you dance - Vern Gosdin
TTITLE4=Every fool has a rainbow - Merle Haggard
TTITLE5=shadows in the moonlihgt - Anne Murray
TTITLE6=more and more - Webb Pierce
TTITLE7=it must be love - 
TTITLE8=beneath Still waters - Emmylou Harris
TTITLE9=are you ready for the country - waylon Jennings
TTITLE10=Whiskey River - Willie Nelson
TTITLE11=when I dream - Crystal Gayle
TTITLE12=I believe in you - Don Williams
TTITLE13=I love how you love me - Glen Campbell
TTITLE14=Take me back to the country - Dolly Parton
EXTD=
EXTT0=
EXTT1=
EXTT2=
EXTT3=
EXTT4=
EXTT5=
EXTT6=
EXTT7=
EXTT8=
EXTT9=
EXTT10=
EXTT11=
EXTT12=
EXTT13=
EXTT14=
PLAYORDER=
